<?xml version="1.0" standalone="no"?>
<!DOCTYPE svg PUBLIC "-//W3C//DTD SVG 1.1//EN" "http://www.w3.org/Graphics/SVG/1.1/DTD/svg11.dtd" >
<svg xmlns="http://www.w3.org/2000/svg">
<metadata></metadata>
<defs>
<font id="avalonbold" horiz-adv-x="503" >
<font-face units-per-em="1000" ascent="750" descent="-250" />
<missing-glyph horiz-adv-x="251" />
<glyph unicode="&#xfb01;" horiz-adv-x="512" d="M31 392v111h43q7 78 41 120q47 60 123 60q21 0 34 -1v-117q-44 0 -59 -12t-18 -50h70v-111h-70v-392h-121v392h-43zM336 0v503h121v-503h-121zM336 559v111h121v-111h-121z" />
<glyph unicode="&#xfb02;" horiz-adv-x="512" d="M31 392v111h43q7 78 41 120q47 60 123 60q21 0 34 -1v-117q-44 0 -59 -12t-18 -50h70v-111h-70v-392h-121v392h-43zM336 0v670h121v-670h-121z" />
<glyph unicode="&#xfb03;" horiz-adv-x="775" d="M31 392v111h43q7 78 41 120q47 60 124 60q20 0 33 -1v-117q-44 0 -59 -12t-18 -50h142q7 78 41 120q47 60 123 60q20 0 33 -1v-117q-43 0 -58 -12t-18 -50h70v-111h-70v-392h-121v392h-142v-392h-121v392h-43zM599 0v503h121v-503h-121zM599 559v111h121v-111h-121z" />
<glyph unicode="&#xfb04;" horiz-adv-x="775" d="M31 392v111h43q7 78 41 120q47 60 124 60q20 0 33 -1v-117q-44 0 -59 -12t-18 -50h142q7 78 41 120q47 60 123 60q20 0 33 -1v-117q-43 0 -58 -12t-18 -50h70v-111h-70v-392h-121v392h-142v-392h-121v392h-43zM599 0v670h121v-670h-121z" />
<glyph horiz-adv-x="1000" />
<glyph horiz-adv-x="1000" />
<glyph unicode="&#xd;" horiz-adv-x="1000" />
<glyph unicode=" "  horiz-adv-x="251" />
<glyph unicode="&#x09;" horiz-adv-x="251" />
<glyph unicode="&#xa0;" horiz-adv-x="251" />
<glyph unicode="!" horiz-adv-x="261" d="M70 0v115h121v-115h-121zM70 171v499h121v-499h-121z" />
<glyph unicode="&#x22;" horiz-adv-x="243" d="M28 670h76l-8 -209h-60zM139 670h76l-8 -209h-60z" />
<glyph unicode="#" d="M25 213l11 80h87l12 84h-87l11 80h87l21 151h79l-21 -151h90l22 151h79l-22 -151h84l-12 -80h-83l-12 -84h84l-12 -80h-83l-21 -151h-79l21 151h-90l-22 -151h-79l21 151h-86zM202 293h90l12 84h-90z" />
<glyph unicode="$" d="M35 214v12h120q1 -35 23.5 -56.5t56.5 -21.5t57 22.5t23 55.5q0 45 -34 64q-14 9 -66 23q-62 18 -102 53q-52 46 -52 126q0 62 33 107t91 61v116h114v-118q48 -14 81 -57.5t36 -97.5h-114q-16 55 -60 55q-25 0 -42.5 -18t-17.5 -44q0 -33 30 -54q19 -12 82 -31 q142 -44 142 -185q0 -67 -37 -117t-100 -67v-120h-114v119q-48 13 -80 38t-51 61.5t-19 73.5z" />
<glyph unicode="%" horiz-adv-x="814" d="M34 522q0 66 48 113.5t115 47.5t115 -47.5t48 -115.5t-48 -116t-115 -48q-68 0 -115.5 48t-47.5 118zM135 521q0 -28 18 -47t44 -19t44 19t18 46t-18.5 46.5t-43.5 19.5t-43.5 -19.5t-18.5 -45.5zM223 0l278 670h87l-278 -670h-87zM452 153q0 66 48.5 114t115.5 48 q68 0 116 -48t48 -116q0 -67 -48 -115.5t-116 -48.5t-116 48t-48 118zM552 152q0 -29 18.5 -48.5t45.5 -19.5q26 0 44.5 19.5t18.5 47.5t-18.5 47.5t-44.5 19.5t-45 -19.5t-19 -46.5z" />
<glyph unicode="&#x26;" horiz-adv-x="619" d="M34 199q0 61 29.5 105.5t96.5 83.5q-34 40 -45.5 64t-11.5 58q0 74 49 123.5t122 49.5t123 -47.5t50 -117.5q0 -105 -106 -165l62 -69l65 111h134l-116 -202l119 -129l-88 -77l-92 100q-74 -101 -171 -101q-91 0 -155.5 62.5t-64.5 150.5zM155 193q0 -39 26 -64.5 t66 -25.5q28 0 49.5 17t44.5 58l-105 114q-81 -37 -81 -99zM218 513q0 -30 47 -77l14 7q54 27 54 69q0 26 -16 41.5t-43 15.5q-23 0 -39.5 -16t-16.5 -40z" />
<glyph unicode="'" horiz-adv-x="132" d="M28 670h76l-8 -209h-60z" />
<glyph unicode="(" horiz-adv-x="311" d="M34 250q0 107 37.5 208.5t102.5 168.5q39 41 110 77v-129q-61 -56 -93.5 -140.5t-32.5 -183.5q0 -97 35 -187t91 -136v-129q-44 17 -73 39.5t-61 63.5q-116 149 -116 348z" />
<glyph unicode=")" horiz-adv-x="311" d="M27 -72q126 117 126 324q0 97 -35 187t-91 136v129q44 -17 73 -39.5t61 -63.5q116 -149 116 -349q0 -106 -37.5 -207t-102.5 -169q-44 -45 -110 -77v129z" />
<glyph unicode="*" horiz-adv-x="439" d="M47 516l25 77l109 -39l-3 116h83l-3 -117l108 39l26 -77l-110 -34l69 -92l-66 -49l-67 96l-67 -96l-65 49l71 93z" />
<glyph unicode="+" d="M37 290v90h169v170h90v-170h170v-90h-170v-169h-90v169h-169z" />
<glyph unicode="," horiz-adv-x="235" d="M57 0v121h121v-128q0 -60 -38 -92q-34 -28 -76 -28h-6v61q29 5 41 16.5t12 34.5q0 9 -1 15h-53z" />
<glyph unicode="-" horiz-adv-x="251" d="M0 208v101h251v-101h-251z" />
<glyph unicode="." horiz-adv-x="235" d="M57 0v121h121v-121h-121z" />
<glyph unicode="/" horiz-adv-x="415" d="M-23 -168l312 838h86l-313 -838h-85z" />
<glyph unicode="0" d="M28 217v241q0 111 76 173q66 52 147 52q97 0 160 -63.5t63 -161.5v-247q0 -98 -62 -161t-158 -63q-107 0 -175 76q-51 55 -51 154zM149 221q0 -55 28.5 -87.5t76.5 -32.5q46 0 73.5 31.5t27.5 83.5v243q0 43 -31 76.5t-72 33.5q-44 0 -73.5 -32.5t-29.5 -80.5v-235z" />
<glyph unicode="1" d="M129 556v114h205v-670h-121v556h-84z" />
<glyph unicode="2" d="M29 462q-4 92 61.5 157t158.5 65t157 -64t64 -156q0 -88 -59 -155q-38 -45 -70 -73l-136 -122h265v-114h-433v114l239 223q74 70 74 133q0 44 -27.5 72t-70.5 28q-29 0 -53 -15.5t-37 -41.5q-11 -22 -11 -73h-121z" />
<glyph unicode="3" d="M13 202h121q4 -43 35 -72t73 -29q43 0 75 32.5t32 76.5q0 51 -36 81t-98 30h-19v114h21q38 0 60.5 19t22.5 52q0 28 -17.5 45.5t-45.5 17.5q-48 0 -55 -61h-121q4 42 13.5 67.5t31.5 48.5q54 59 133 59q75 0 128.5 -53.5t53.5 -127.5q0 -73 -58 -118q31 -13 47.5 -27 t31.5 -40q28 -47 28 -107q0 -94 -66.5 -158.5t-164.5 -64.5q-92 0 -156.5 61.5t-69.5 153.5z" />
<glyph unicode="4" d="M2 101v98l308 471h102v-455h71v-114h-71v-101h-121v101h-289zM131 215h160v252z" />
<glyph unicode="5" d="M10 199h120q9 -46 37.5 -72t69.5 -26q48 0 81 34.5t33 84.5q0 48 -33.5 83t-79.5 35q-52 0 -90 -48l-108 29l63 351h304v-114h-213l-22 -124q43 20 86 20q88 0 151 -68t63 -163q0 -98 -68 -166t-165 -68q-90 0 -158 63t-71 149z" />
<glyph unicode="6" d="M19 224q0 80 43 145l198 301h142l-149 -227q28 2 33 2q81 0 139.5 -64t58.5 -153q0 -101 -67.5 -171t-164.5 -70t-165 69t-68 168zM140 219q0 -49 32.5 -83.5t78.5 -34.5q47 0 79.5 33.5t32.5 81.5q0 49 -33 83.5t-80 34.5q-46 0 -78 -33.5t-32 -81.5z" />
<glyph unicode="7" d="M59 556v114h395v-114l-242 -556h-134l250 556h-269z" />
<glyph unicode="8" d="M27 209q0 65 40 117q23 30 60 47q-60 60 -60 126q0 75 54 129.5t130 54.5q77 0 131.5 -53.5t54.5 -129.5q0 -74 -60 -127q36 -21 55 -42q43 -49 43 -125q0 -90 -66 -154.5t-159 -64.5t-158 65t-65 157zM148 205q0 -43 30 -73.5t73 -30.5t73 30.5t30 72.5t-30 72.5 t-71 30.5q-44 0 -74.5 -29.5t-30.5 -72.5zM181 498q0 -30 21 -51t50 -21q30 0 51 21t21 50t-21 50t-49 21q-31 0 -52 -20.5t-21 -49.5z" />
<glyph unicode="9" d="M19 444q0 102 66 171t164 69q103 0 174 -76q60 -64 60 -157q0 -86 -58 -174l-183 -277h-142l148 226q-20 -2 -24 -2q-88 0 -146.5 63t-58.5 157zM136 449q0 -48 33.5 -82t80.5 -34q48 0 81.5 34t33.5 81t-33.5 81t-79.5 34q-48 0 -82 -33.5t-34 -80.5z" />
<glyph unicode=":" horiz-adv-x="235" d="M57 0v121h121v-121h-121zM57 382v121h121v-121h-121z" />
<glyph unicode=";" horiz-adv-x="235" d="M57 0v121h121v-128q0 -60 -38 -92q-34 -28 -76 -28h-6v61q29 5 41 16.5t12 34.5q0 9 -1 15h-53zM57 382v121h121v-121h-121z" />
<glyph unicode="&#x3c;" d="M34 291v101l436 219v-119l-308 -151l308 -150v-119z" />
<glyph unicode="=" d="M37 213v84h429v-84h-429zM37 373v84h429v-84h-429z" />
<glyph unicode="&#x3e;" d="M34 71v120l308 150l-308 151v119l436 -219v-102z" />
<glyph unicode="?" horiz-adv-x="456" d="M13 474q7 84 44 131q27 34 73 56t92 22q84 0 143 -61.5t59 -148.5q0 -44 -21 -81.5t-70 -79.5q-34 -30 -46.5 -53.5t-12.5 -58.5q0 -17 1 -31h-120q-1 12 -1 26q0 70 33 127q12 19 23.5 31t53.5 47q39 33 39 77q0 38 -23.5 61.5t-61.5 23.5q-46 0 -68 -32 q-10 -15 -16 -56h-121zM155 0v121h121v-121h-121z" />
<glyph unicode="@" horiz-adv-x="764" d="M46 257q0 148 103 250.5t252 102.5q137 0 227.5 -84t90.5 -212q0 -92 -50 -162.5t-114 -70.5q-30 0 -51 16.5t-26 44.5q-45 -69 -128 -69q-60 0 -100.5 45.5t-40.5 112.5q0 81 52.5 141t123.5 60q70 0 102 -58l9 47h79l-38 -194q-6 -30 -6 -45q0 -17 7.5 -27t20.5 -10 q34 0 62.5 53t28.5 116q0 100 -68.5 163t-177.5 63q-119 0 -200 -82t-81 -203q0 -118 77 -197q74 -75 203 -75q105 0 190 33l18 -70q-90 -33 -208 -33q-156 0 -251 91q-50 48 -78 114.5t-28 138.5zM299 235q0 -37 20.5 -59.5t52.5 -22.5q37 0 65.5 35t28.5 82q0 36 -19.5 58 t-51.5 22q-38 0 -67 -34.5t-29 -80.5z" />
<glyph unicode="A" horiz-adv-x="655" d="M-1 0l279 670h97l281 -670h-137l-71 173h-238l-74 -173h-137zM255 289h144l-72 206z" />
<glyph unicode="B" horiz-adv-x="527" d="M62 0v670h132q77 0 115 -7t69 -27q36 -23 58 -62t22 -80q0 -85 -75 -129q115 -40 115 -166q0 -104 -88 -161q-59 -38 -169 -38h-179zM186 116h63q125 0 125 87q0 43 -32.5 66.5t-90.5 23.5h-65v-177zM186 409h41q52 0 76 14q31 19 31 58q0 35 -25 54t-71 19h-52v-145z " />
<glyph unicode="C" horiz-adv-x="711" d="M32 338q0 142 102 243.5t245 101.5q124 0 220 -78q36 -29 56.5 -56t39.5 -70h-141q-76 88 -180 88q-88 0 -153 -68.5t-65 -162.5t66.5 -163.5t156.5 -69.5q48 0 86.5 19t81.5 64h144q-37 -89 -123 -144t-187 -55q-143 0 -246 103.5t-103 247.5z" />
<glyph unicode="D" horiz-adv-x="631" d="M62 0v670h152q152 0 237 -51q68 -40 108.5 -118t40.5 -168q0 -95 -45.5 -175t-121.5 -118q-81 -40 -216 -40h-155zM186 116h26q108 0 164 33q47 28 73.5 76.5t26.5 106.5q0 60 -28.5 111.5t-76.5 79.5q-55 31 -161 31h-24v-438z" />
<glyph unicode="E" horiz-adv-x="462" d="M62 0v670h361v-116h-237v-163h227v-116h-227v-159h237v-116h-361z" />
<glyph unicode="F" horiz-adv-x="428" d="M62 0v670h341v-116h-217v-163h207v-116h-207v-275h-124z" />
<glyph unicode="G" horiz-adv-x="777" d="M32 335q0 143 105 245.5t252 102.5q107 0 200 -60t125 -149h-148q-30 44 -77.5 68.5t-102.5 24.5q-101 0 -165 -69q-29 -31 -47 -76.5t-18 -88.5q0 -97 68.5 -163.5t168.5 -66.5q64 0 116.5 33t81.5 89h-281v116h437q0 -118 -64 -207q-49 -68 -127 -107.5t-164 -39.5 q-149 0 -254.5 101.5t-105.5 246.5z" />
<glyph unicode="H" horiz-adv-x="611" d="M62 0v670h124v-273h240v273h124v-670h-124v281h-240v-281h-124z" />
<glyph unicode="I" horiz-adv-x="247" d="M62 0v670h124v-670h-124z" />
<glyph unicode="J" horiz-adv-x="423" d="M0 158h124q12 -55 60 -55q28 0 44 21.5t16 58.5v487h124v-479q0 -84 -39 -136q-53 -68 -144 -68q-85 0 -141 61q-21 22 -30.5 46t-13.5 64z" />
<glyph unicode="K" horiz-adv-x="537" d="M62 0v670h124v-290l211 290h146l-253 -329l253 -341h-146l-211 294v-294h-124z" />
<glyph unicode="L" horiz-adv-x="407" d="M62 0v670h124v-554h204v-116h-328z" />
<glyph unicode="M" horiz-adv-x="824" d="M62 0v670h172l179 -508l177 508h172v-670h-124v502l-174 -502h-104l-174 502v-502h-124z" />
<glyph unicode="N" horiz-adv-x="668" d="M62 0v670h141l279 -488v488h124v-670h-139l-281 487v-487h-124z" />
<glyph unicode="O" horiz-adv-x="763" d="M32 339q0 140 103.5 242t247.5 102q145 0 247.5 -102t102.5 -246t-102.5 -246t-247.5 -102q-147 0 -249 102t-102 250zM156 337q0 -98 66.5 -166t161.5 -68q93 0 159 68t66 164t-66 164t-160 68q-93 0 -160 -68t-67 -162z" />
<glyph unicode="P" horiz-adv-x="508" d="M62 0v670h169q72 0 105 -6.5t64 -26.5q90 -57 90 -170q0 -55 -24 -102.5t-65 -76.5q-29 -20 -61.5 -26t-110.5 -6h-43v-256h-124zM186 372h40q56 0 83 10q25 9 41 32.5t16 51.5t-15.5 49.5t-41.5 30.5q-24 8 -78 8h-45v-182z" />
<glyph unicode="Q" horiz-adv-x="776" d="M32 336q0 146 103 246.5t251 100.5t253.5 -101.5t105.5 -244.5q0 -67 -17.5 -115.5t-62.5 -104.5q33 -19 72 -19l20 2v-113q-8 -1 -17 -1q-80 0 -158 55q-79 -54 -192 -54q-149 0 -253.5 102t-104.5 247zM156 338q0 -19 2 -35q44 12 96 12q107 0 218 -64q63 -37 93 -66 q56 66 56 150q0 96 -68.5 164t-164.5 68q-93 0 -162.5 -68.5t-69.5 -160.5zM197 205q74 -102 192 -102q49 0 88 22q-119 89 -221 89q-26 0 -59 -9z" />
<glyph unicode="R" horiz-adv-x="542" d="M62 0v670h205q113 0 171 -51q71 -62 71 -156q0 -47 -19 -92t-51 -73q-38 -34 -105 -50l181 -248h-150l-179 256v-256h-124zM186 350h79q56 0 88 27.5t32 75.5q0 46 -32.5 73.5t-86.5 27.5h-80v-204z" />
<glyph unicode="S" horiz-adv-x="485" d="M17 192h130q1 -41 26 -65.5t66 -24.5q39 0 64.5 23.5t25.5 60.5q0 36 -20.5 58.5t-70.5 40.5q-73 27 -96.5 38.5t-44.5 32.5q-56 54 -56 137q0 78 58 134t139 56q95 0 155 -73q40 -49 43 -117h-128q-3 35 -22.5 54.5t-51.5 19.5t-50.5 -18.5t-18.5 -49.5q0 -33 26 -53 q22 -18 86 -40q80 -29 115 -62q61 -57 61 -141q0 -89 -61 -150q-68 -66 -156 -66q-51 0 -98 22t-77 60q-40 52 -44 123z" />
<glyph unicode="T" horiz-adv-x="391" d="M9 554v116h372v-116h-124v-554h-124v554h-124z" />
<glyph unicode="U" horiz-adv-x="589" d="M55 244v426h124v-426q0 -62 21 -94q31 -48 94 -48q64 0 95 47q21 30 21 95v426h124v-426q0 -110 -46 -167q-71 -91 -192 -91q-61 0 -115 27t-87 73q-39 55 -39 158z" />
<glyph unicode="V" horiz-adv-x="609" d="M-7 670h131l180 -510l181 510h130l-259 -670h-102z" />
<glyph unicode="W" horiz-adv-x="833" d="M12 670h127l117 -468l116 468h90l114 -468l118 468h127l-195 -670h-99l-109 443l-112 -443h-98z" />
<glyph unicode="X" horiz-adv-x="595" d="M-7 0l231 334l-231 336h147l157 -234l161 234h144l-232 -336l232 -334h-144l-161 232l-157 -232h-147z" />
<glyph unicode="Y" horiz-adv-x="552" d="M-7 670h136l146 -308l146 308h137l-221 -423v-247h-124v247z" />
<glyph unicode="Z" horiz-adv-x="459" d="M22 0v102l257 452h-243v116h387v-108l-254 -446h272v-116h-419z" />
<glyph unicode="[" horiz-adv-x="311" d="M54 104v323q0 129 71 204q25 27 52.5 43t74.5 30v-126q-47 -19 -60 -54q-17 -42 -17 -122v-319q0 -63 18 -105q9 -21 21.5 -32.5t37.5 -21.5v-125q-198 45 -198 305z" />
<glyph unicode="\" horiz-adv-x="415" d="M40 670h86l312 -838h-85z" />
<glyph unicode="]" horiz-adv-x="311" d="M59 -75q47 19 60 54q17 42 17 122v319q0 62 -18 104q-9 22 -21.5 33.5t-37.5 21.5v125q198 -47 198 -306v-323q0 -127 -71 -204q-44 -47 -127 -72v126z" />
<glyph unicode="^" d="M8 342l164 332h158l164 -332h-126l-117 236l-117 -236h-126z" />
<glyph unicode="_" d="M0 -49h503v-109h-503v109z" />
<glyph unicode="`" d="M102 683l57 78l174 -145l-53 -66z" />
<glyph unicode="a" horiz-adv-x="616" d="M30 254q0 113 72 189.5t179 76.5q48 0 94.5 -22.5t74.5 -58.5v64h111v-503h-111v62q-10 -13 -40 -34q-65 -45 -135 -45q-106 0 -175.5 77t-69.5 194zM151 249q0 -66 43.5 -111t105.5 -45q63 0 105 45t42 113q0 69 -41.5 113.5t-105.5 44.5q-63 0 -106 -46t-43 -114z" />
<glyph unicode="b" horiz-adv-x="615" d="M55 0v670h121v-213q60 63 157 63q105 0 179 -78.5t74 -190.5q0 -113 -72 -190.5t-178 -77.5q-99 0 -170 77v-60h-111zM169 254q0 -68 43.5 -114t108.5 -46q62 0 103 45t41 113q0 67 -42 112t-105 45q-62 0 -105.5 -45t-43.5 -110z" />
<glyph unicode="c" horiz-adv-x="566" d="M30 254q0 110 78.5 188t188.5 78q105 0 183 -73q47 -43 69 -111h-136q-22 40 -49.5 57t-66.5 17q-64 0 -105 -45t-41 -113t43 -113t108 -45q68 0 111 70h136q-28 -78 -83 -122q-72 -59 -168 -59q-110 0 -189 79.5t-79 191.5z" />
<glyph unicode="d" horiz-adv-x="615" d="M29 251q0 110 74.5 189.5t178.5 79.5q42 0 85 -17t71 -45v212h121v-670h-110v61q-72 -78 -173 -78q-100 0 -173.5 79.5t-73.5 188.5zM150 253q0 -66 43.5 -112.5t105.5 -46.5q61 0 105 46.5t44 110.5t-44.5 111t-105.5 47q-59 0 -103.5 -46.5t-44.5 -109.5z" />
<glyph unicode="e" horiz-adv-x="585" d="M30 251q0 113 77.5 192.5t187.5 79.5q106 0 183 -78t77 -186q0 -22 -7 -61h-391q12 -45 50.5 -74.5t84.5 -29.5q72 0 112 65h133q-23 -76 -91.5 -126t-150.5 -50q-110 0 -187.5 78t-77.5 190zM154 295h283q-13 54 -51 85.5t-90 31.5t-91 -32t-51 -85z" />
<glyph unicode="f" horiz-adv-x="282" d="M31 392v111h43q7 78 41 120q47 60 123 60q21 0 34 -1v-117q-44 0 -59 -12t-18 -50h70v-111h-70v-392h-121v392h-43z" />
<glyph unicode="g" horiz-adv-x="621" d="M30 256q0 109 75.5 186.5t181.5 77.5q107 0 168 -79v62h111v-411q0 -124 -60 -197q-83 -99 -215 -99q-86 0 -154.5 45t-98.5 121h137q48 -56 123 -56q65 0 108.5 44t47.5 114q-68 -81 -166 -81q-106 0 -182 80t-76 193zM151 254q0 -68 43.5 -114.5t106.5 -46.5 q59 0 101.5 46t42.5 110q0 67 -43 113.5t-105 46.5q-61 0 -103.5 -45t-42.5 -110z" />
<glyph unicode="h" horiz-adv-x="552" d="M55 0v670h121v-202q55 52 130 52q44 0 88 -22.5t70 -59.5q37 -51 37 -154v-284h-121v257q0 79 -24.5 115.5t-77.5 36.5q-56 0 -84 -50q-18 -33 -18 -104v-255h-121z" />
<glyph unicode="i" horiz-adv-x="231" d="M55 0v503h121v-503h-121zM55 559v111h121v-111h-121z" />
<glyph unicode="j" horiz-adv-x="231" d="M5 -51q33 5 41.5 18t8.5 57v479h121v-482q0 -84 -47 -136t-124 -53v117zM55 561v109h121v-109h-121z" />
<glyph unicode="k" horiz-adv-x="494" d="M55 0v670h121v-404l162 237h139l-181 -246l204 -257h-152l-172 235v-235h-121z" />
<glyph unicode="l" horiz-adv-x="231" d="M55 0v670h121v-670h-121z" />
<glyph unicode="m" horiz-adv-x="861" d="M55 0v503h111v-43q45 60 133 60q92 0 145 -79q55 79 162 79q112 0 168 -82q36 -50 36 -145v-293h-121v278q0 71 -25 99q-27 32 -70 32q-56 0 -84 -49q-18 -32 -18 -109v-251h-121v278q0 64 -25 96q-27 35 -75 35q-59 0 -81 -53q-14 -34 -14 -105v-251h-121z" />
<glyph unicode="n" horiz-adv-x="554" d="M55 0v503h112v-44q62 61 137 61q44 0 86.5 -20.5t68.5 -54.5q24 -31 33.5 -69.5t9.5 -103.5v-272h-121v248q0 94 -30 128q-26 33 -71 33q-25 0 -48.5 -13t-35.5 -34q-20 -33 -20 -123v-239h-121z" />
<glyph unicode="o" horiz-adv-x="595" d="M30 256q0 107 80 185.5t189 78.5q111 0 188.5 -78t77.5 -190t-78.5 -190.5t-190.5 -78.5q-110 0 -188 80t-78 193zM151 253q0 -67 42.5 -113t104.5 -46t104 45t42 111q0 65 -43 112t-103 47q-59 0 -103 -46t-44 -110z" />
<glyph unicode="p" horiz-adv-x="612" d="M55 -168v671h111v-59q61 76 165 76q107 0 178 -78q73 -79 73 -188q0 -113 -73.5 -192t-178.5 -79q-48 0 -81.5 14t-72.5 50v-215h-121zM169 253q0 -67 42 -113t104 -46q61 0 103.5 46t42.5 111q0 66 -42 112t-102 46q-62 0 -105 -45.5t-43 -110.5z" />
<glyph unicode="q" horiz-adv-x="613" d="M29 256q0 107 75.5 185.5t178.5 78.5q53 0 91.5 -19t72.5 -62v64h110v-671h-121v216q-59 -65 -153 -65q-106 0 -180 80t-74 193zM150 253q0 -68 42 -113.5t105 -45.5q60 0 103 46t43 111q0 64 -43.5 111t-103.5 47q-61 0 -103.5 -45.5t-42.5 -110.5z" />
<glyph unicode="r" horiz-adv-x="293" d="M55 0v503h111v-45q18 24 33.5 37t33.5 19t42 6h10v-118q-56 -2 -82.5 -31t-26.5 -89v-282h-121z" />
<glyph unicode="s" horiz-adv-x="406" d="M14 158h123q9 -35 24.5 -50t41.5 -15q23 0 38.5 14.5t15.5 36.5t-17.5 36t-67.5 30q-43 14 -59 22t-35 25q-46 41 -46 107q0 65 49 110.5t119 45.5q78 0 127 -58q36 -41 37 -96h-118q-8 43 -47 43q-20 0 -33.5 -12t-13.5 -31q0 -16 11.5 -26.5t40.5 -19.5q89 -27 117 -47 q57 -41 57 -114t-54 -124.5t-130 -51.5q-43 0 -83 19.5t-63 51.5q-27 37 -34 104z" />
<glyph unicode="t" horiz-adv-x="278" d="M8 392v111h59v167h121v-167h72v-111h-72v-392h-121v392h-59z" />
<glyph unicode="u" horiz-adv-x="554" d="M52 208v295h121v-257q0 -152 104 -152q49 0 75.5 39t26.5 113v257h121v-503h-111v50q-29 -37 -57.5 -52t-72.5 -15q-84 0 -144 55q-34 31 -48.5 69.5t-14.5 100.5z" />
<glyph unicode="v" horiz-adv-x="493" d="M-4 503h131l122 -334l116 334h132l-203 -503h-95z" />
<glyph unicode="w" horiz-adv-x="711" d="M3 503h129l92 -307l84 307h96l82 -307l93 307h129l-184 -503h-74l-95 326l-97 -326h-74z" />
<glyph unicode="x" horiz-adv-x="487" d="M-7 0l179 260l-156 243h135l92 -152l92 152h135l-156 -243l181 -260h-144l-108 172l-106 -172h-144z" />
<glyph unicode="y" horiz-adv-x="502" d="M-4 503h138l114 -323l121 323h137l-289 -671h-130l93 215z" />
<glyph unicode="z" horiz-adv-x="414" d="M17 0v109l222 283h-197v111h342v-109l-222 -283h238v-111h-383z" />
<glyph unicode="{" horiz-adv-x="311" d="M22 211v89q54 13 54 81v151q0 76 34.5 110t112.5 30l37 -2h17v-103h-9q-45 0 -60 -12q-10 -8 -12.5 -18t-2.5 -41v-123q0 -51 -14 -75.5t-51 -46.5q36 -38 43.5 -48t12.5 -22q9 -27 9 -63v-112q0 -33 3.5 -43.5t14.5 -17.5q13 -10 56 -10h10v-103h-17l-37 -2 q-74 -5 -115 35q-32 31 -32 107v148q0 43 -12.5 63.5t-41.5 27.5z" />
<glyph unicode="|" d="M191 -168v838h121v-838h-121z" />
<glyph unicode="}" horiz-adv-x="311" d="M34 -65h9q44 0 59 12q10 8 12.5 18t2.5 41v123q0 51 14 75.5t51 46.5q-36 38 -43.5 48t-12.5 22q-9 24 -9 63v112q0 32 -3 43t-14 18q-15 10 -57 10h-9v103h17l36 2q74 5 115 -35q32 -31 32 -107v-148q0 -43 12.5 -63.5t42.5 -27.5v-89q-29 -7 -42 -26t-13 -55v-151 q0 -76 -34.5 -110t-112.5 -30q-12 2 -37 2h-16v103z" />
<glyph unicode="~" horiz-adv-x="670" d="M91 611q6 14 8 16q34 68 63.5 94t78.5 26q31 0 105 -28q64 -25 90 -25q24 0 40 11.5t34 42.5l69 -40q-36 -75 -71 -101q-40 -29 -87 -29q-18 0 -41 7t-105 38q-22 8 -42 8q-25 0 -40 -13t-35 -51z" />
<glyph unicode="&#xa1;" horiz-adv-x="261" d="M70 -168v500h121v-500h-121zM70 388v115h121v-115h-121z" />
<glyph unicode="&#xa2;" d="M35 347q0 75 46.5 134.5t116.5 74.5v92h114v-92q58 -15 99 -57t54 -98h-128q-11 19 -35 31t-49 12q-41 0 -69.5 -29t-28.5 -72q0 -42 28.5 -70t71.5 -28q37 0 77 36h133q-26 -62 -62 -96.5t-91 -49.5v-99h-114v99q-57 11 -100 57q-63 66 -63 155z" />
<glyph unicode="&#xa3;" d="M0 281v114h42q-14 36 -14 73q0 87 64.5 151t152.5 64q120 0 188 -112q26 -44 26 -80h-122q-8 34 -32.5 54.5t-58.5 20.5q-41 0 -69 -30t-28 -75q0 -37 25 -66h188v-114h-98l5 -10q23 -47 23 -98q0 -28 -10 -59q37 0 58 12q18 11 30 32.5t12 44.5q0 14 -8 45h120 q9 -17 9 -47q0 -41 -18.5 -82.5t-48.5 -67.5q-60 -51 -151 -51h-257v114h126q17 30 17 65q0 50 -51 102h-120z" />
<glyph unicode="&#xa4;" horiz-adv-x="596" d="M40 125l76 76q-45 60 -45 136q0 71 44 133l-73 73l48 47l73 -73q62 45 134 45q77 0 135 -45l76 76l47 -48l-76 -75q44 -62 44 -133q0 -73 -44 -136l74 -74l-48 -47l-73 73q-63 -44 -136 -44t-133 44l-76 -76zM161 338q0 -61 39.5 -103t96.5 -42q58 0 98 42t40 102 q0 58 -40.5 100t-96.5 42q-55 0 -96 -42t-41 -99z" />
<glyph unicode="&#xa5;" d="M-2 670h121l131 -294l133 294h121l-102 -212h63v-95h-108l-43 -90h131v-95h-134v-178h-121v178h-133v95h130l-43 90h-107v95h62z" />
<glyph unicode="&#xa6;" d="M191 154h121v-322h-121v322zM191 324v346h121v-346h-121z" />
<glyph unicode="&#xa7;" d="M29 314q0 80 73 133q-26 42 -26 85q0 68 50.5 110t131.5 42q83 0 131.5 -44t56.5 -127h-113q-10 60 -83 60q-29 0 -45.5 -12t-16.5 -32q0 -33 59 -64l149 -76q77 -40 77 -126q0 -76 -70 -127q45 -46 45 -109q0 -74 -55 -122t-140 -48q-90 0 -147.5 53t-60.5 139h120 q0 -26 7 -40q21 -44 82 -44q34 0 57 17t23 42q0 21 -12.5 34.5t-51.5 33.5l-150 79q-91 49 -91 143zM135 322q0 -30 53 -57l140 -72q37 28 37 59q0 17 -11.5 29t-42.5 28l-138 71q-38 -26 -38 -58z" />
<glyph unicode="&#xa8;" d="M102 573v121h117v-121h-117zM283 573v121h117v-121h-117z" />
<glyph unicode="&#xa9;" horiz-adv-x="788" d="M46 339q0 140 103.5 242t245.5 102q143 0 245.5 -102.5t102.5 -245.5t-102.5 -245.5t-245.5 -102.5q-146 0 -247.5 102.5t-101.5 249.5zM86 338q0 -131 90.5 -223t218.5 -92q126 0 217 92t91 219q0 128 -91 220.5t-217 92.5t-217.5 -92t-91.5 -217zM171 343 q0 85 66.5 146.5t158.5 61.5q82 0 144 -47q42 -31 64 -81h-97q-49 53 -113 53q-55 0 -96 -40t-41 -94t41.5 -94.5t97.5 -40.5t107 50h99q-25 -57 -80.5 -91t-123.5 -34q-93 0 -160 62.5t-67 148.5z" />
<glyph unicode="&#xaa;" horiz-adv-x="411" d="M24 421q0 68 47 114t117 46q57 0 105 -42v32h77v-303h-77v32q-53 -42 -109 -42q-69 0 -114.5 46.5t-45.5 116.5zM108 419q0 -37 27 -63t65 -26q39 0 65 26t26 64q0 40 -25.5 65t-65.5 25q-39 0 -65.5 -26.5t-26.5 -64.5z" />
<glyph unicode="&#xab;" horiz-adv-x="387" d="M37 213v91l126 118v-112l-61 -51l61 -53v-112zM217 213v91l126 118v-112l-61 -51l61 -53v-112z" />
<glyph unicode="&#xac;" d="M34 156v113h436v-269h-121v156h-315z" />
<glyph unicode="&#xad;" d="M37 290v90h429v-90h-429z" />
<glyph unicode="&#xae;" horiz-adv-x="788" d="M46 339q0 140 103.5 242t245.5 102q143 0 245.5 -102.5t102.5 -245.5t-102.5 -245.5t-245.5 -102.5q-146 0 -247.5 102.5t-101.5 249.5zM86 338q0 -131 90.5 -223t218.5 -92q126 0 217 92t91 219q0 128 -91 220.5t-217 92.5t-217.5 -92t-91.5 -217zM261 141v402h135 q73 0 111 -31q47 -38 47 -95q0 -49 -29 -82.5t-81 -46.5l117 -147h-104l-110 144v-144h-86zM347 354h47q34 0 54 15.5t20 42.5q0 25 -20 40.5t-53 15.5h-48v-114z" />
<glyph unicode="&#xaf;" d="M101 587v80h308v-80h-308z" />
<glyph unicode="&#xb0;" horiz-adv-x="385" d="M47 543q0 57 43 98.5t102 41.5q61 0 103.5 -41.5t42.5 -100.5t-43 -101t-102 -42q-61 0 -103.5 42t-42.5 103zM112 542q0 -34 23.5 -57t57.5 -23q33 0 56.5 23.5t23.5 55.5t-23.5 55t-57.5 23q-32 0 -56 -23t-24 -54z" />
<glyph unicode="&#xb1;" d="M37 0v90h429v-90h-429zM37 290v90h169v170h90v-170h170v-90h-170v-169h-90v169h-169z" />
<glyph unicode="&#xb2;" horiz-adv-x="341" d="M25 543q0 57 41.5 96t102.5 39t103 -39t42 -95q0 -67 -84 -136l-80 -66h164v-74h-284v72l154 132q46 40 46 76q0 25 -16.5 40.5t-42.5 15.5q-36 0 -54 -32q-7 -14 -7 -45h-84q-1 7 -1 16z" />
<glyph unicode="&#xb3;" horiz-adv-x="341" d="M14 394h84q2 -26 20.5 -43t45.5 -17q26 0 45.5 18t19.5 43q0 28 -22 45t-60 17h-16v74h17q23 0 36.5 10.5t13.5 28.5q0 15 -10.5 24.5t-26.5 9.5q-29 0 -33 -36h-84q4 47 31 74q36 36 87 36q49 0 84.5 -32.5t35.5 -77.5t-34 -69q31 -13 48 -40.5t17 -62.5 q0 -58 -43.5 -97t-107.5 -39q-61 0 -103.5 38.5t-44.5 95.5z" />
<glyph unicode="&#xb4;" d="M169 616l174 145l57 -78l-179 -133z" />
<glyph unicode="&#xb5;" d="M29 -173v656h121v-258q0 -49 7 -74t26 -43q29 -29 70 -29q45 0 73 36q27 36 27 114v254h121v-483h-121v61q-36 -72 -103 -72q-62 0 -100 64v-226h-121z" />
<glyph unicode="&#xb6;" d="M20 492q0 105 70 150q44 28 127 28h246v-77h-51v-687h-82v687h-69v-687h-82v415h-11q-66 0 -107 47.5t-41 123.5z" />
<glyph unicode="&#xb7;" horiz-adv-x="235" d="M57 198v121h121v-121h-121z" />
<glyph unicode="&#xb8;" d="M185 -151h54q12 -27 36 -27q16 0 26.5 12t10.5 29q0 16 -10.5 27t-24.5 11q-19 0 -35 -22l-49 24l43 97h42l-23 -53q17 7 27 7q34 0 59.5 -27t25.5 -64q0 -38 -26 -64.5t-64 -26.5q-35 0 -61.5 21.5t-30.5 55.5z" />
<glyph unicode="&#xb9;" horiz-adv-x="341" d="M89 596v74h138v-402h-84v328h-54z" />
<glyph unicode="&#xba;" horiz-adv-x="398" d="M24 422q0 65 52 112.5t124 47.5t122.5 -47.5t50.5 -114.5q0 -68 -51.5 -115t-124.5 -47q-71 0 -122 48t-51 116zM108 421q0 -38 26 -64.5t65 -26.5q38 0 64 26t26 63t-26.5 64t-63.5 27t-64 -26.5t-27 -62.5z" />
<glyph unicode="&#xbb;" horiz-adv-x="387" d="M44 94v112l61 53l-61 51v112l126 -118v-91zM224 94v112l61 53l-61 51v112l126 -118v-91z" />
<glyph unicode="&#xbc;" horiz-adv-x="834" d="M89 596v74h138v-402h-84v328h-54zM240 0l278 670h75l-277 -670h-76zM500 59v63l199 280h70v-269h46v-74h-46v-59h-84v59h-185zM590 130h98v143z" />
<glyph unicode="&#xbd;" horiz-adv-x="834" d="M89 596v74h138v-402h-84v328h-54zM240 0l278 670h75l-277 -670h-76zM517 275q0 57 42 96t103 39t103 -39t42 -95q0 -67 -84 -136l-80 -66h164v-74h-285v72l155 132q46 40 46 76q0 25 -16.5 40.5t-42.5 15.5q-37 0 -55 -32q-7 -12 -7 -45h-84q-1 7 -1 16z" />
<glyph unicode="&#xbe;" horiz-adv-x="834" d="M14 394h84q2 -26 20.5 -43t45.5 -17q26 0 45.5 18t19.5 43q0 28 -22 45t-60 17h-16v74h17q23 0 36.5 10.5t13.5 28.5q0 15 -10.5 24.5t-26.5 9.5q-29 0 -33 -36h-84q4 47 31 74q36 36 87 36q49 0 84.5 -32.5t35.5 -77.5t-34 -69q31 -13 48 -40.5t17 -62.5 q0 -58 -43.5 -97t-107.5 -39q-61 0 -103.5 38.5t-44.5 95.5zM240 0l277 670h76l-278 -670h-75zM500 59v63l199 280h70v-269h45v-74h-45v-59h-84v59h-185zM590 130h98v143z" />
<glyph unicode="&#xbf;" horiz-adv-x="456" d="M32 30q0 43 21 80t70 80q35 30 47 53t12 59q0 15 -1 31h120q1 -11 1 -26q0 -70 -33 -127q-12 -20 -23.5 -31.5t-53.5 -45.5q-39 -33 -39 -77q0 -39 23 -62.5t62 -23.5q44 0 68 33q10 13 16 56h121q-7 -84 -44 -131q-28 -35 -73.5 -57t-91.5 -22q-84 0 -143 61.5 t-59 149.5zM181 382v121h121v-121h-121z" />
<glyph unicode="&#xc0;" horiz-adv-x="655" d="M-1 0l279 670h97l281 -670h-137l-71 173h-238l-74 -173h-137zM129 826l47 92l204 -121l-44 -80zM255 289h144l-72 206z" />
<glyph unicode="&#xc1;" horiz-adv-x="655" d="M-1 0l279 670h97l281 -670h-137l-71 173h-238l-74 -173h-137zM255 289h144l-72 206zM273 797l204 121l47 -92l-207 -109z" />
<glyph unicode="&#xc2;" horiz-adv-x="655" d="M-1 0l279 670h97l281 -670h-137l-71 173h-238l-74 -173h-137zM153 734l123 125h111l125 -125h-132l-48 58l-48 -58h-131zM255 289h144l-72 206z" />
<glyph unicode="&#xc3;" horiz-adv-x="655" d="M-1 0l279 670h97l281 -670h-137l-71 173h-238l-74 -173h-137zM171 808q40 42 98 42q30 0 72 -14q34 -12 58 -12q41 0 72 32l39 -75q-45 -48 -97 -48q-21 0 -92 21q-27 8 -38 8q-36 0 -73 -33zM255 289h144l-72 206z" />
<glyph unicode="&#xc4;" horiz-adv-x="655" d="M-1 0l279 670h97l281 -670h-137l-71 173h-238l-74 -173h-137zM177 740v121h121v-121h-121zM255 289h144l-72 206zM364 740v121h121v-121h-121z" />
<glyph unicode="&#xc5;" horiz-adv-x="655" d="M-1 0l279 670h97l281 -670h-137l-71 173h-238l-74 -173h-137zM227 821q0 42 30.5 72t73.5 30t73 -30t30 -73t-30 -73t-73 -30t-73.5 30.5t-30.5 73.5zM255 289h144l-72 206zM291 821q0 -18 11.5 -30t28.5 -12q16 0 27.5 12t11.5 29t-11.5 29t-27.5 12t-28 -12t-12 -28z " />
<glyph unicode="&#xc6;" horiz-adv-x="768" d="M-23 0l443 670h309v-116h-200v-163h190v-116h-190v-159h200v-116h-324v173h-178l-104 -173h-146zM301 289h104v177z" />
<glyph unicode="&#xc7;" horiz-adv-x="711" d="M32 337q0 143 102 244.5t245 101.5q124 0 220 -78q36 -29 56.5 -56t39.5 -70h-141q-76 88 -180 88q-88 0 -153 -69t-65 -162q0 -94 66.5 -164t156.5 -70q48 0 86.5 19t81.5 65h144q-35 -89 -125 -145.5t-191 -54.5l-18 -38q18 7 29 7q35 0 62 -29t27 -67q0 -40 -28.5 -69 t-68.5 -29t-66.5 23t-30.5 62h55q11 -31 41 -31q17 0 28 12.5t11 31.5q0 17 -10.5 28t-26.5 11q-23 0 -38 -24l-52 26l39 90q-60 14 -86.5 25t-57.5 33q-73 52 -112.5 128t-39.5 161z" />
<glyph unicode="&#xc8;" horiz-adv-x="462" d="M62 0v670h361v-116h-237v-163h227v-116h-227v-159h237v-116h-361zM70 826l47 92l204 -121l-44 -80z" />
<glyph unicode="&#xc9;" horiz-adv-x="462" d="M62 0v670h361v-116h-237v-163h227v-116h-227v-159h237v-116h-361zM184 797l204 121l47 -92l-207 -109z" />
<glyph unicode="&#xca;" horiz-adv-x="462" d="M62 0v670h361v-116h-237v-163h227v-116h-227v-159h237v-116h-361zM65 734l123 125h111l125 -125h-132l-48 58l-48 -58h-131z" />
<glyph unicode="&#xcb;" horiz-adv-x="462" d="M62 0v670h361v-116h-237v-163h227v-116h-227v-159h237v-116h-361zM91 740v121h121v-121h-121zM278 740v121h121v-121h-121z" />
<glyph unicode="&#xcc;" horiz-adv-x="247" d="M-49 829l54 85l177 -120l-47 -77zM62 0v670h124v-670h-124z" />
<glyph unicode="&#xcd;" horiz-adv-x="247" d="M62 0v670h124v-670h-124zM72 794l178 120l54 -85l-184 -112z" />
<glyph unicode="&#xce;" horiz-adv-x="247" d="M-41 734l110 125h111l111 -125h-128l-39 65l-37 -65h-128zM61 0v670h124v-670h-124z" />
<glyph unicode="&#xcf;" horiz-adv-x="247" d="M-12 740v121h114v-121h-114zM62 0v670h124v-670h-124zM152 740v121h114v-121h-114z" />
<glyph unicode="&#xd0;" horiz-adv-x="631" d="M-2 285v104h64v281h152q152 0 237 -51q67 -40 108 -118t41 -167q0 -95 -45.5 -175.5t-121.5 -118.5q-80 -40 -216 -40h-155v285h-64zM186 116h26q108 0 164 33q47 28 73.5 76.5t26.5 106.5q0 61 -28 112t-77 79q-55 31 -161 31h-24v-165h160v-104h-160v-169z" />
<glyph unicode="&#xd1;" horiz-adv-x="668" d="M62 0v670h141l279 -488v488h124v-670h-139l-281 487v-487h-124zM181 808q40 42 98 42q30 0 72 -14q35 -12 58 -12q41 0 72 32l39 -75q-45 -48 -97 -48q-21 0 -92 21q-27 8 -38 8q-36 0 -73 -33z" />
<glyph unicode="&#xd2;" horiz-adv-x="763" d="M32 339q0 140 103.5 242t247.5 102q145 0 247.5 -102t102.5 -246t-102.5 -246t-247.5 -102q-147 0 -249 102t-102 250zM156 337q0 -98 66.5 -166t161.5 -68q93 0 159 68t66 164t-66 164t-160 68q-93 0 -160 -68t-67 -162zM183 826l47 92l204 -121l-44 -80z" />
<glyph unicode="&#xd3;" horiz-adv-x="763" d="M32 339q0 140 103.5 242t247.5 102q145 0 247.5 -102t102.5 -246t-102.5 -246t-247.5 -102q-147 0 -249 102t-102 250zM156 337q0 -98 66.5 -166t161.5 -68q93 0 159 68t66 164t-66 164t-160 68q-93 0 -160 -68t-67 -162zM331 797l204 121l47 -92l-207 -109z" />
<glyph unicode="&#xd4;" horiz-adv-x="763" d="M32 339q0 140 103.5 242t247.5 102q145 0 247.5 -102t102.5 -246t-102.5 -246t-247.5 -102q-147 0 -249 102t-102 250zM156 337q0 -98 66.5 -166t161.5 -68q93 0 159 68t66 164t-66 164t-160 68q-93 0 -160 -68t-67 -162zM208 734l123 125h111l125 -125h-132l-48 58 l-48 -58h-131z" />
<glyph unicode="&#xd5;" horiz-adv-x="763" d="M32 339q0 140 103.5 242t247.5 102q145 0 247.5 -102t102.5 -246t-102.5 -246t-247.5 -102q-147 0 -249 102t-102 250zM156 337q0 -98 66.5 -166t161.5 -68q93 0 159 68t66 164t-66 164t-160 68q-93 0 -160 -68t-67 -162zM229 808q40 42 98 42q30 0 72 -14q34 -12 58 -12 q41 0 72 32l39 -75q-45 -48 -97 -48q-21 0 -92 21q-27 8 -38 8q-36 0 -73 -33z" />
<glyph unicode="&#xd6;" horiz-adv-x="763" d="M32 339q0 140 103.5 242t247.5 102q145 0 247.5 -102t102.5 -246t-102.5 -246t-247.5 -102q-147 0 -249 102t-102 250zM156 337q0 -98 66.5 -166t161.5 -68q93 0 159 68t66 164t-66 164t-160 68q-93 0 -160 -68t-67 -162zM231 740v121h121v-121h-121zM418 740v121h121 v-121h-121z" />
<glyph unicode="&#xd7;" d="M56 203l132 132l-132 132l63 63l133 -132l131 132l63 -62l-131 -134l131 -131l-63 -63l-132 133l-132 -132z" />
<glyph unicode="&#xd8;" horiz-adv-x="763" d="M32 336q0 142 102.5 244.5t244.5 102.5q71 0 162 -36l68 92l80 -62l-65 -87q64 -78 86.5 -131t22.5 -123q0 -145 -103 -247t-250 -102q-81 0 -150 36l-63 -87l-80 62l60 82q-53 42 -84 110.5t-31 145.5zM156 336q0 -96 60 -156l255 366q-38 21 -86 21q-95 0 -162 -67.5 t-67 -163.5zM298 119q44 -16 84 -16q94 0 160.5 68t66.5 163q0 91 -56 153z" />
<glyph unicode="&#xd9;" horiz-adv-x="589" d="M55 244v426h124v-426q0 -62 21 -94q31 -48 94 -48q64 0 95 47q21 30 21 95v426h124v-426q0 -110 -46 -167q-71 -91 -192 -91q-61 0 -115 27t-87 73q-39 55 -39 158zM106 826l47 92l204 -121l-44 -80z" />
<glyph unicode="&#xda;" horiz-adv-x="589" d="M55 244v426h124v-426q0 -62 21 -94q31 -48 94 -48q64 0 95 47q21 30 21 95v426h124v-426q0 -110 -46 -167q-71 -91 -192 -91q-61 0 -115 27t-87 73q-39 55 -39 158zM246 797l204 121l47 -92l-207 -109z" />
<glyph unicode="&#xdb;" horiz-adv-x="589" d="M55 244v426h124v-426q0 -62 21 -94q31 -48 94 -48q64 0 95 47q21 30 21 95v426h124v-426q0 -110 -46 -167q-71 -91 -192 -91q-61 0 -115 27t-87 73q-39 55 -39 158zM124 734l123 125h111l125 -125h-132l-48 58l-48 -58h-131z" />
<glyph unicode="&#xdc;" horiz-adv-x="589" d="M55 244v426h124v-426q0 -62 21 -94q31 -48 94 -48q64 0 95 47q21 30 21 95v426h124v-426q0 -110 -46 -167q-71 -91 -192 -91q-61 0 -115 27t-87 73q-39 55 -39 158zM147 740v121h121v-121h-121zM334 740v121h121v-121h-121z" />
<glyph unicode="&#xdd;" horiz-adv-x="552" d="M-7 670h136l146 -308l146 308h137l-221 -423v-247h-124v247zM231 797l204 121l47 -92l-207 -109z" />
<glyph unicode="&#xde;" horiz-adv-x="510" d="M62 0v670h124v-94h45q71 0 104.5 -7t64.5 -27q42 -29 66 -74.5t24 -97.5t-24 -99.5t-65 -76.5q-49 -34 -172 -34h-43v-160h-124zM186 281h40q56 0 83 9q25 8 41 30.5t16 48.5q0 27 -15.5 48t-41.5 30q-24 8 -78 8h-45v-174z" />
<glyph unicode="&#xdf;" horiz-adv-x="566" d="M52 0v442q0 84 31 141q25 46 72 73.5t101 27.5q82 0 138.5 -55t56.5 -135q0 -89 -60 -124q70 -17 107.5 -62.5t37.5 -113.5q0 -92 -60 -151.5t-154 -59.5q-109 0 -159 83v-66h-111zM173 172h78q6 -34 29.5 -56t53.5 -22q34 0 57.5 26t23.5 64q0 60 -51 86q-33 16 -113 16 h-11v107h11q33 0 56 27t23 66q0 40 -21 63.5t-56 23.5q-80 0 -80 -117v-284z" />
<glyph unicode="&#xe0;" horiz-adv-x="616" d="M30 254q0 113 72 189.5t179 76.5q48 0 94.5 -22.5t74.5 -58.5v64h111v-503h-111v62q-10 -13 -40 -34q-65 -45 -135 -45q-106 0 -175.5 77t-69.5 194zM151 249q0 -66 43.5 -111t105.5 -45q63 0 105 45t42 113q0 69 -41.5 113.5t-105.5 44.5q-63 0 -106 -46t-43 -114z M156 683l57 78l174 -145l-53 -66z" />
<glyph unicode="&#xe1;" horiz-adv-x="616" d="M30 254q0 113 72 189.5t179 76.5q48 0 94.5 -22.5t74.5 -58.5v64h111v-503h-111v62q-10 -13 -40 -34q-65 -45 -135 -45q-106 0 -175.5 77t-69.5 194zM151 249q0 -66 43.5 -111t105.5 -45q63 0 105 45t42 113q0 69 -41.5 113.5t-105.5 44.5q-63 0 -106 -46t-43 -114z M236 616l174 145l57 -78l-179 -133z" />
<glyph unicode="&#xe2;" horiz-adv-x="616" d="M30 254q0 113 72 189.5t179 76.5q48 0 94.5 -22.5t74.5 -58.5v64h111v-503h-111v62q-10 -13 -40 -34q-65 -45 -135 -45q-106 0 -175.5 77t-69.5 194zM147 570l118 132h108l116 -132h-122l-48 65l-51 -65h-121zM151 249q0 -66 43.5 -111t105.5 -45q63 0 105 45t42 113 q0 69 -41.5 113.5t-105.5 44.5q-63 0 -106 -46t-43 -114z" />
<glyph unicode="&#xe3;" horiz-adv-x="616" d="M30 254q0 113 72 189.5t179 76.5q48 0 94.5 -22.5t74.5 -58.5v64h111v-503h-111v62q-10 -13 -40 -34q-65 -45 -135 -45q-106 0 -175.5 77t-69.5 194zM151 249q0 -66 43.5 -111t105.5 -45q63 0 105 45t42 113q0 69 -41.5 113.5t-105.5 44.5q-63 0 -106 -46t-43 -114z M164 648q24 23 42.5 31t45.5 8q38 0 74 -12q27 -9 56 -9q38 0 66 27l38 -73q-35 -41 -96 -41q-16 0 -83 17q-33 8 -45 8q-32 0 -58 -27z" />
<glyph unicode="&#xe4;" horiz-adv-x="616" d="M30 254q0 113 72 189.5t179 76.5q48 0 94.5 -22.5t74.5 -58.5v64h111v-503h-111v62q-10 -13 -40 -34q-65 -45 -135 -45q-106 0 -175.5 77t-69.5 194zM151 249q0 -66 43.5 -111t105.5 -45q63 0 105 45t42 113q0 69 -41.5 113.5t-105.5 44.5q-63 0 -106 -46t-43 -114z M170 573v121h117v-121h-117zM351 573v121h117v-121h-117z" />
<glyph unicode="&#xe5;" horiz-adv-x="616" d="M30 254q0 113 72 189.5t179 76.5q48 0 94.5 -22.5t74.5 -58.5v64h111v-503h-111v62q-10 -13 -40 -34q-65 -45 -135 -45q-106 0 -175.5 77t-69.5 194zM151 249q0 -66 43.5 -111t105.5 -45q63 0 105 45t42 113q0 69 -41.5 113.5t-105.5 44.5q-63 0 -106 -46t-43 -114z M218 657q0 40 30 69.5t71 29.5t70.5 -29.5t29.5 -70.5t-29.5 -70.5t-70.5 -29.5q-42 0 -71.5 29.5t-29.5 71.5zM278 657q0 -18 12 -30.5t29 -12.5q16 0 28 12.5t12 29.5t-12 29.5t-28 12.5q-17 0 -29 -12t-12 -29z" />
<glyph unicode="&#xe6;" horiz-adv-x="988" d="M30 252q0 110 77.5 189t186.5 79q87 0 150 -63v46h111v-46q59 63 150 63q103 0 178.5 -77t75.5 -182q0 -26 -8 -63h-390q15 -47 51.5 -75.5t82.5 -28.5q70 0 115 65h131q-12 -40 -42 -75q-85 -101 -199 -101q-96 0 -145 67v-50h-111v50q-54 -67 -152 -67 q-108 0 -185 79.5t-77 189.5zM151 256q0 -68 42 -115t102 -47q61 0 103.5 46t42.5 113q0 65 -42.5 110.5t-102.5 45.5q-59 0 -102 -45.5t-43 -107.5zM559 295h275q-13 46 -33 68q-40 46 -103 46t-105 -47q-21 -22 -34 -67z" />
<glyph unicode="&#xe7;" horiz-adv-x="566" d="M30 254q0 110 78.5 188t188.5 78q105 0 183 -73q47 -43 69 -111h-136q-22 40 -49.5 57t-66.5 17q-64 0 -105 -45t-41 -113t43 -113t108 -45q68 0 111 70h136q-34 -94 -107 -139q-66 -42 -141 -42h-12l-16 -36q17 7 27 7q34 0 59.5 -27t25.5 -64q0 -38 -26 -64.5 t-64 -26.5q-35 0 -61.5 21.5t-30.5 55.5h54q12 -27 36 -27q16 0 26.5 12t10.5 29q0 16 -10.5 27t-24.5 11q-19 0 -36 -22l-49 24l38 85q-99 22 -158.5 95t-59.5 171z" />
<glyph unicode="&#xe8;" horiz-adv-x="585" d="M30 251q0 113 77.5 192.5t187.5 79.5q106 0 183 -78t77 -186q0 -22 -7 -61h-391q12 -45 50.5 -74.5t84.5 -29.5q72 0 112 65h133q-23 -76 -91.5 -126t-150.5 -50q-110 0 -187.5 78t-77.5 190zM130 683l57 78l174 -145l-53 -66zM154 295h283q-13 54 -51 85.5t-90 31.5 t-91 -32t-51 -85z" />
<glyph unicode="&#xe9;" horiz-adv-x="585" d="M30 251q0 113 77.5 192.5t187.5 79.5q106 0 183 -78t77 -186q0 -22 -7 -61h-391q12 -45 50.5 -74.5t84.5 -29.5q72 0 112 65h133q-23 -76 -91.5 -126t-150.5 -50q-110 0 -187.5 78t-77.5 190zM154 295h283q-13 54 -51 85.5t-90 31.5t-91 -32t-51 -85zM241 616l174 145 l57 -78l-179 -133z" />
<glyph unicode="&#xea;" horiz-adv-x="585" d="M30 251q0 113 77.5 192.5t187.5 79.5q106 0 183 -78t77 -186q0 -22 -7 -61h-391q12 -45 50.5 -74.5t84.5 -29.5q72 0 112 65h133q-23 -76 -91.5 -126t-150.5 -50q-110 0 -187.5 78t-77.5 190zM135 570l118 132h108l116 -132h-122l-48 65l-51 -65h-121zM154 295h283 q-13 54 -51 85.5t-90 31.5t-91 -32t-51 -85z" />
<glyph unicode="&#xeb;" horiz-adv-x="585" d="M30 251q0 113 77.5 192.5t187.5 79.5q106 0 183 -78t77 -186q0 -22 -7 -61h-391q12 -45 50.5 -74.5t84.5 -29.5q72 0 112 65h133q-23 -76 -91.5 -126t-150.5 -50q-110 0 -187.5 78t-77.5 190zM154 295h283q-13 54 -51 85.5t-90 31.5t-91 -32t-51 -85zM154 573v121h117 v-121h-117zM335 573v121h117v-121h-117z" />
<glyph unicode="&#xec;" horiz-adv-x="231" d="M-37 670l57 77l157 -131l-52 -66zM55 0v503h121v-503h-121z" />
<glyph unicode="&#xed;" horiz-adv-x="231" d="M55 0v503h121v-503h-121zM64 616l157 131l57 -77l-162 -120z" />
<glyph unicode="&#xee;" horiz-adv-x="231" d="M-36 570l101 132h108l99 -132h-118l-35 65l-37 -65h-118zM54 0v503h121v-503h-121z" />
<glyph unicode="&#xef;" horiz-adv-x="231" d="M-12 573v121h107v-121h-107zM55 0v503h121v-503h-121zM142 573v121h107v-121h-107z" />
<glyph unicode="&#xf0;" horiz-adv-x="595" d="M30 250q0 109 73 182.5t181 73.5q24 0 65 -12q-14 25 -17 30l-17 26l-1 2q-2 3 -4 6.5t-4 6.5l-62 -30l-39 55l63 31l-15 17l-18 23l-14 12l71 42q7 -8 39 -37l16 -17l68 34l41 -55l-68 -35q80 -103 110 -154q67 -114 67 -208q0 -107 -79 -183.5t-191 -76.5 q-111 0 -188 77.5t-77 189.5zM151 252q0 -67 42.5 -112.5t104.5 -45.5t104 43.5t42 107.5q0 63 -43 109t-103 46t-103.5 -44t-43.5 -104z" />
<glyph unicode="&#xf1;" horiz-adv-x="554" d="M55 0v503h112v-44q62 61 137 61q44 0 86.5 -20.5t68.5 -54.5q24 -31 33.5 -69.5t9.5 -103.5v-272h-121v248q0 94 -30 128q-26 33 -71 33q-25 0 -48.5 -13t-35.5 -34q-20 -33 -20 -123v-239h-121zM127 648q24 23 42.5 31t45.5 8q38 0 74 -12q27 -9 56 -9q38 0 66 27 l38 -73q-35 -41 -96 -41q-16 0 -83 17q-33 8 -45 8q-32 0 -58 -27z" />
<glyph unicode="&#xf2;" horiz-adv-x="595" d="M30 256q0 107 80 185.5t189 78.5q111 0 188.5 -78t77.5 -190t-78.5 -190.5t-190.5 -78.5q-110 0 -188 80t-78 193zM128 683l57 78l174 -145l-53 -66zM151 253q0 -67 42.5 -113t104.5 -46t104 45t42 111q0 65 -43 112t-103 47q-59 0 -103 -46t-44 -110z" />
<glyph unicode="&#xf3;" horiz-adv-x="595" d="M30 256q0 107 80 185.5t189 78.5q111 0 188.5 -78t77.5 -190t-78.5 -190.5t-190.5 -78.5q-110 0 -188 80t-78 193zM151 253q0 -67 42.5 -113t104.5 -46t104 45t42 111q0 65 -43 112t-103 47q-59 0 -103 -46t-44 -110zM242 616l174 145l57 -78l-179 -133z" />
<glyph unicode="&#xf4;" horiz-adv-x="595" d="M30 256q0 107 80 185.5t189 78.5q111 0 188.5 -78t77.5 -190t-78.5 -190.5t-190.5 -78.5q-110 0 -188 80t-78 193zM133 570l118 132h108l116 -132h-122l-48 65l-51 -65h-121zM151 253q0 -67 42.5 -113t104.5 -46t104 45t42 111q0 65 -43 112t-103 47q-59 0 -103 -46 t-44 -110z" />
<glyph unicode="&#xf5;" horiz-adv-x="595" d="M30 256q0 107 80 185.5t189 78.5q111 0 188.5 -78t77.5 -190t-78.5 -190.5t-190.5 -78.5q-110 0 -188 80t-78 193zM151 253q0 -67 42.5 -113t104.5 -46t104 45t42 111q0 65 -43 112t-103 47q-59 0 -103 -46t-44 -110zM156 648q24 23 42.5 31t45.5 8q38 0 74 -12 q27 -9 56 -9q38 0 66 27l38 -73q-35 -41 -96 -41q-16 0 -83 17q-33 8 -45 8q-32 0 -58 -27z" />
<glyph unicode="&#xf6;" horiz-adv-x="595" d="M30 256q0 107 80 185.5t189 78.5q111 0 188.5 -78t77.5 -190t-78.5 -190.5t-190.5 -78.5q-110 0 -188 80t-78 193zM151 253q0 -67 42.5 -113t104.5 -46t104 45t42 111q0 65 -43 112t-103 47q-59 0 -103 -46t-44 -110zM155 573v121h117v-121h-117zM336 573v121h117v-121 h-117z" />
<glyph unicode="&#xf7;" d="M37 300v90h429v-90h-429zM196 133v107h111v-107h-111zM196 451v107h111v-107h-111z" />
<glyph unicode="&#xf8;" horiz-adv-x="595" d="M30 253q0 111 80 189t193 78q59 0 106 -26l41 62l71 -48l-41 -62q85 -69 85 -196q0 -111 -79 -189t-191 -78q-57 0 -112 27l-47 -59l-68 50l42 60q-37 34 -58.5 85.5t-21.5 106.5zM151 250q0 -54 29 -92l163 241q-20 10 -41 10q-63 0 -107 -46t-44 -113zM247 104 q29 -10 51 -10q61 0 103.5 45t42.5 110q0 47 -30 99z" />
<glyph unicode="&#xf9;" horiz-adv-x="554" d="M52 208v295h121v-257q0 -152 104 -152q49 0 75.5 39t26.5 113v257h121v-503h-111v50q-29 -37 -57.5 -52t-72.5 -15q-84 0 -144 55q-34 31 -48.5 69.5t-14.5 100.5zM109 683l57 78l174 -145l-53 -66z" />
<glyph unicode="&#xfa;" horiz-adv-x="554" d="M52 208v295h121v-257q0 -152 104 -152q49 0 75.5 39t26.5 113v257h121v-503h-111v50q-29 -37 -57.5 -52t-72.5 -15q-84 0 -144 55q-34 31 -48.5 69.5t-14.5 100.5zM226 616l174 145l57 -78l-179 -133z" />
<glyph unicode="&#xfb;" horiz-adv-x="554" d="M52 208v295h121v-257q0 -152 104 -152q49 0 75.5 39t26.5 113v257h121v-503h-111v50q-29 -37 -57.5 -52t-72.5 -15q-84 0 -144 55q-34 31 -48.5 69.5t-14.5 100.5zM113 570l118 132h108l116 -132h-122l-48 65l-51 -65h-121z" />
<glyph unicode="&#xfc;" horiz-adv-x="554" d="M52 208v295h121v-257q0 -152 104 -152q49 0 75.5 39t26.5 113v257h121v-503h-111v50q-29 -37 -57.5 -52t-72.5 -15q-84 0 -144 55q-34 31 -48.5 69.5t-14.5 100.5zM133 573v121h117v-121h-117zM314 573v121h117v-121h-117z" />
<glyph unicode="&#xfd;" horiz-adv-x="502" d="M-4 503h138l114 -323l121 323h137l-289 -671h-130l93 215zM199 616l174 145l57 -78l-179 -133z" />
<glyph unicode="&#xfe;" horiz-adv-x="612" d="M55 -168v838h111v-233q34 44 72 63.5t92 19.5q108 0 179 -78q73 -79 73 -188q0 -114 -73.5 -192.5t-179.5 -78.5q-49 0 -83.5 16t-69.5 55v-222h-121zM169 253q0 -65 42 -109t104 -44q61 0 103.5 44.5t42.5 106.5q0 63 -42.5 107.5t-101.5 44.5q-62 0 -105 -44t-43 -106z " />
<glyph unicode="&#xff;" horiz-adv-x="502" d="M-4 503h138l114 -323l121 323h137l-289 -671h-130l93 215zM109 573v121h117v-121h-117zM290 573v121h117v-121h-117z" />
<glyph unicode="&#x152;" horiz-adv-x="950" d="M32 335q0 146 97.5 247.5t238.5 101.5q66 0 125 -23.5t94 -63.5v73h323v-116h-199v-163h189v-116h-189v-159h199v-116h-323v72q-34 -38 -94.5 -61.5t-124.5 -23.5q-140 0 -238 101.5t-98 246.5zM156 337q0 -98 63 -166t154 -68t155 66.5t64 161.5q0 98 -64.5 167.5 t-155.5 69.5q-88 0 -152 -68t-64 -163z" />
<glyph unicode="&#x153;" horiz-adv-x="984" d="M30 252q0 110 78 189t187 79q122 0 200 -104q46 56 90.5 80t104.5 24q110 0 187 -75.5t77 -183.5q0 -33 -5 -63h-389q17 -48 52.5 -76t81.5 -28q31 0 64 18.5t50 46.5h129q-25 -77 -93.5 -126.5t-149.5 -49.5q-61 0 -113.5 28t-85.5 78q-26 -40 -56 -62q-60 -44 -146 -44 q-109 0 -186 78.5t-77 190.5zM151 255q0 -67 42.5 -114t103.5 -47t103.5 46t42.5 111t-43 111.5t-103 46.5t-103 -45.5t-43 -108.5zM557 295h273q-12 52 -49 83t-88 31q-50 0 -85 -29.5t-51 -84.5z" />
<glyph unicode="&#x178;" horiz-adv-x="552" d="M-7 670h136l146 -308l146 308h137l-221 -423v-247h-124v247zM128 740v121h121v-121h-121zM315 740v121h121v-121h-121z" />
<glyph unicode="&#x2c6;" d="M80 570l118 132h108l116 -132h-122l-48 65l-51 -65h-121z" />
<glyph unicode="&#x2dc;" d="M90 648q24 23 42.5 31t45.5 8q38 0 74 -12q27 -9 56 -9q38 0 66 27l38 -73q-35 -41 -96 -41q-16 0 -83 17q-33 8 -45 8q-32 0 -58 -27z" />
<glyph unicode="&#x2000;" horiz-adv-x="461" />
<glyph unicode="&#x2001;" horiz-adv-x="923" />
<glyph unicode="&#x2002;" horiz-adv-x="461" />
<glyph unicode="&#x2003;" horiz-adv-x="923" />
<glyph unicode="&#x2004;" horiz-adv-x="307" />
<glyph unicode="&#x2005;" horiz-adv-x="230" />
<glyph unicode="&#x2006;" horiz-adv-x="153" />
<glyph unicode="&#x2007;" horiz-adv-x="153" />
<glyph unicode="&#x2008;" horiz-adv-x="115" />
<glyph unicode="&#x2009;" horiz-adv-x="184" />
<glyph unicode="&#x200a;" horiz-adv-x="51" />
<glyph unicode="&#x2010;" horiz-adv-x="251" d="M0 208v101h251v-101h-251z" />
<glyph unicode="&#x2011;" horiz-adv-x="251" d="M0 208v101h251v-101h-251z" />
<glyph unicode="&#x2012;" horiz-adv-x="251" d="M0 208v101h251v-101h-251z" />
<glyph unicode="&#x2013;" d="M34 208v101h436v-101h-436z" />
<glyph unicode="&#x2014;" horiz-adv-x="755" d="M0 204v107h755v-107h-755z" />
<glyph unicode="&#x2018;" horiz-adv-x="235" d="M57 422v128q0 75 58 105q27 15 62 15v-61q-29 -6 -41 -17.5t-12 -33.5q0 -9 1 -15h53v-121h-121z" />
<glyph unicode="&#x2019;" horiz-adv-x="235" d="M57 549v121h121v-128q0 -60 -38 -92q-34 -28 -76 -28h-6v61q29 5 41 16.5t12 34.5q0 9 -1 15h-53z" />
<glyph unicode="&#x201a;" horiz-adv-x="235" d="M57 0v121h121v-128q0 -60 -38 -92q-34 -28 -76 -28h-6v61q29 5 41 16.5t12 34.5q0 9 -1 15h-53z" />
<glyph unicode="&#x201c;" horiz-adv-x="422" d="M57 422v128q0 75 58 105q27 15 62 15v-61q-29 -6 -41 -17.5t-12 -33.5q0 -9 1 -15h53v-121h-121zM245 422v128q0 54 31.5 87t87.5 33v-61q-28 -5 -40 -16.5t-12 -34.5v-15h53v-121h-120z" />
<glyph unicode="&#x201d;" horiz-adv-x="422" d="M57 549v121h121v-128q0 -60 -38 -92q-34 -28 -76 -28h-6v61q29 5 41 16.5t12 34.5q0 9 -1 15h-53zM245 549v121h120v-128q0 -60 -38 -92q-33 -28 -75 -28h-6v61q28 5 40 16.5t12 34.5v15h-53z" />
<glyph unicode="&#x201e;" horiz-adv-x="422" d="M57 0v121h121v-128q0 -60 -38 -92q-34 -28 -76 -28h-6v61q29 5 41 16.5t12 34.5q0 9 -1 15h-53zM245 0v121h120v-128q0 -60 -38 -92q-33 -28 -75 -28h-6v61q28 5 40 16.5t12 34.5v15h-53z" />
<glyph unicode="&#x2022;" horiz-adv-x="670" d="M197 340q0 58 41.5 99t100.5 41q56 0 96.5 -41.5t40.5 -98.5t-41 -98t-98 -41q-58 0 -99 41t-41 98z" />
<glyph unicode="&#x2026;" horiz-adv-x="704" d="M57 0v121h121v-121h-121zM292 0v121h121v-121h-121zM526 0v121h121v-121h-121z" />
<glyph unicode="&#x202f;" horiz-adv-x="184" />
<glyph unicode="&#x2039;" horiz-adv-x="207" d="M37 213v91l126 118v-112l-61 -51l61 -53v-112z" />
<glyph unicode="&#x203a;" horiz-adv-x="207" d="M44 94v112l61 53l-61 51v112l126 -118v-91z" />
<glyph unicode="&#x205f;" horiz-adv-x="230" />
<glyph unicode="&#x20ac;" horiz-adv-x="715" d="M28 247l28 66h58q-1 8 -1 26q0 11 1 18h-86l28 66h68q31 116 124.5 188.5t210.5 72.5q132 0 228 -84l-52 -121q-27 31 -51 48q-59 41 -129 41q-64 0 -120 -40.5t-81 -104.5h357l-28 -66h-345q-1 -8 -1 -21q0 -14 1 -23h326l-28 -66h-281q27 -65 83.5 -104.5t121.5 -39.5 q83 0 148 63v-146q-69 -33 -146 -33q-116 0 -211 73t-126 187h-97z" />
<glyph unicode="&#x2122;" horiz-adv-x="783" d="M17 598v72h237v-72h-76v-310h-84v310h-77zM285 288v382h113l108 -278l108 278h112v-382h-84v267l-102 -267h-69l-102 267v-267h-84z" />
<glyph unicode="&#xe000;" horiz-adv-x="505" d="M0 0v505h505v-505h-505z" />
</font>
</defs>
</svg>
